<?xml version="1.0" standalone="no"?>
<!DOCTYPE svg PUBLIC "-//W3C//DTD SVG 20010904//EN"
 "http://www.w3.org/TR/2001/REC-SVG-20010904/DTD/svg10.dtd">
<svg version="1.0" xmlns="http://www.w3.org/2000/svg"
 width="1024.000000pt" height="1024.000000pt" viewBox="0 0 1024.000000 1024.000000"
 preserveAspectRatio="xMidYMid meet">
<metadata>
Created by potrace 1.11, written by Peter Selinger 2001-2013
</metadata>
<g transform="translate(0.000000,1024.000000) scale(0.100000,-0.100000)"
fill="#000000" stroke="none">
<path d="M1939 10236 c-2 -2 -33 -6 -69 -10 -68 -6 -89 -10 -180 -27 -177 -34
-399 -112 -560 -197 -625 -330 -1042 -941 -1117 -1637 -10 -91 -10 -6400 0
-6485 14 -123 16 -135 31 -210 75 -360 259 -717 506 -984 296 -321 660 -534
1077 -631 241 -56 54 -53 3533 -51 l3215 2 105 21 c149 30 159 32 220 49 584
163 1072 572 1334 1119 70 145 137 342 160 470 3 17 8 41 11 55 33 151 33 193
33 3395 0 1738 -4 3194 -8 3235 -33 282 -95 491 -215 732 -110 220 -228 381
-410 559 -230 225 -490 385 -790 487 -105 35 -278 78 -350 87 -27 3 -81 9
-120 14 -65 9 -6397 15 -6406 7z"/>
</g>
</svg>
