<?xml version="1.0" encoding="UTF-8"?>
<svg width="318px" height="350px" viewBox="0 0 318 350" version="1.1" xmlns="http://www.w3.org/2000/svg" xmlns:xlink="http://www.w3.org/1999/xlink">
    <!-- Generator: Sketch 51.3 (57544) - http://www.bohemiancoding.com/sketch -->
    <title>logo-large</title>
    <desc>Created with Sketch.</desc>
    <defs>
        <linearGradient x1="-83.2348064%" y1="106.401351%" x2="140.023112%" y2="-13.2029998%" id="linearGradient-1">
            <stop stop-color="#EBF4FF" offset="0%"></stop>
            <stop stop-color="#C3DAFE" offset="21.7972142%"></stop>
            <stop stop-color="#A3BFFA" offset="100%"></stop>
            <stop stop-color="#B9DAF5" offset="100%"></stop>
        </linearGradient>
    </defs>
    <g id="Page-1" stroke="none" stroke-width="1" fill="none" fill-rule="evenodd">
        <g id="logo-large">
            <polygon id="Rectangle-3-Copy" stroke="#A3BFFA" points="159.9 41.23566 29.5 106.216315 29.5 268.671884 159.9 333.652539 290.3 268.671884 290.3 106.216315"></polygon>
            <polygon id="Rectangle-3-Copy-2" fill="url(#linearGradient-1)" fill-rule="nonzero" points="129.8 186.334516 129.8 349.670807 0 284.336291 0 121"></polygon>
            <polygon id="Rectangle-3-Copy-4" stroke="#667EEA" transform="translate(252.900000, 235.335404) scale(-1, 1) rotate(-180.000000) translate(-252.900000, -235.335404) " points="317.3 186.642611 188.5 121.811442 188.5 284.028198 317.3 348.859367"></polygon>
            <polygon id="Rectangle-3" stroke="#A3BFFA" points="159.9 41.2359725 30.1185393 106.090062 159.9 170.944152 289.681461 106.090062"></polygon>
            <polygon id="Rectangle-3-Copy-3" stroke="#667EEA" points="159.9 0.558953879 30.1185393 65.4130435 159.9 130.267133 289.681461 65.4130435"></polygon>
            <path d="M160.175,170.953416 L160.175,332.562112" id="Line" stroke="#A3BFFA" stroke-linecap="square"></path>
            <path d="M160.358333,130.484509 L160.358333,165.798482" id="Line-2-Copy-3" stroke="#C7CFDA" stroke-linecap="square" stroke-dasharray="2,4"></path>
            <path d="M290.158333,68.178117 L290.158333,103.49209" id="Line-2-Copy-4" stroke="#C7CFDA" stroke-linecap="square" stroke-dasharray="2,4"></path>
            <path d="M133.55,185.742236 L159.95,172.549689" id="Line-2" stroke="#C7CFDA" stroke-linecap="square" stroke-dasharray="2,4"></path>
            <path d="M133.55,348.742236 L159.95,335.549689" id="Line-2-Copy" stroke="#C7CFDA" stroke-linecap="square" stroke-dasharray="2,4"></path>
            <path d="M292.35,283.586956 L318.75,270.394409" id="Line-2" stroke="#C7CFDA" stroke-linecap="square" stroke-dasharray="2,4" transform="translate(305.550000, 276.990682) scale(-1, 1) rotate(-180.000000) translate(-305.550000, -276.990682) "></path>
            <path d="M162.55,348.742237 L188.95,335.54969" id="Line-2-Copy-2" stroke="#C7CFDA" stroke-linecap="square" stroke-dasharray="2,4" transform="translate(175.750000, 342.145963) scale(-1, 1) rotate(-180.000000) translate(-175.750000, -342.145963) "></path>
            <path d="M291.55,119.742237 L317.95,106.54969" id="Line-2-Copy" stroke="#C7CFDA" stroke-linecap="square" stroke-dasharray="2,4" transform="translate(304.750000, 113.145963) scale(-1, 1) rotate(-180.000000) translate(-304.750000, -113.145963) "></path>
            <path d="M162.55,185.742237 L188.95,172.54969" id="Line-2-Copy-5" stroke="#C7CFDA" stroke-linecap="square" stroke-dasharray="2,4" transform="translate(175.750000, 179.145963) scale(-1, 1) rotate(-180.000000) translate(-175.750000, -179.145963) "></path>
        </g>
    </g>
</svg>